<?xml version="1.0" encoding="UTF-8"?>
<svg width="33px" height="27px" viewBox="0 0 33 27" version="1.1" xmlns="http://www.w3.org/2000/svg" xmlns:xlink="http://www.w3.org/1999/xlink">
    <!-- Generator: Sketch 57 (83077) - https://sketch.com -->
    <title>open 打开文件</title>
    <desc>Created with Sketch.</desc>
    <g id="第一期首页" stroke="none" stroke-width="1" fill="none" fill-rule="evenodd">
        <g id="首页-加搜索" transform="translate(-492.000000, -145.000000)" fill-rule="nonzero">
            <g id="open-打开文件" transform="translate(492.000000, 145.000000)">
                <path d="M17.7850962,9.16225962 C17.7850962,9.72072115 17.3281731,10.1776442 16.7697115,10.1776442 L1.53894231,26.4237981 C0.980480769,26.4237981 0.523557692,25.966875 0.523557692,25.4084135 L0.523557692,1.546875 C0.523557692,0.988413462 0.980480769,0.531490385 1.53894231,0.531490385 L10.6774038,0.531490385 C11.2358654,0.531490385 11.6927885,0.988413462 11.6927885,1.546875 L17.7850962,9.16225962 Z" id="路径" fill="#FFBA4C"></path>
                <path d="M1.74201923,26.9314904 L1.53894231,26.9314904 C0.675865385,26.9314904 0.0158653846,26.2714904 0.0158653846,25.4084135 L0.0158653846,1.546875 C0.0158653846,0.683798077 0.675865385,0.0237980769 1.53894231,0.0237980769 L10.6774038,0.0237980769 C11.4389423,0.0237980769 12.0989423,0.582259615 12.2004808,1.34379808 L18.2927885,8.95918269 L18.2927885,9.16225962 C18.2927885,9.92379808 17.7343269,10.5330288 17.0235577,10.6853365 L1.74201923,26.9314904 Z M1.53894231,1.03918269 C1.23432692,1.03918269 1.03125,1.24225962 1.03125,1.546875 L1.03125,25.4084135 C1.03125,25.6114904 1.18355769,25.8145673 1.33586538,25.8653365 L16.5158654,9.66995192 L16.7189423,9.66995192 C16.9220192,9.66995192 17.1250962,9.51764423 17.2266346,9.31456731 L11.1343269,1.74995192 L11.1343269,1.546875 C11.1343269,1.24225962 10.93125,1.03918269 10.6266346,1.03918269 L1.53894231,1.03918269 Z" id="形状" fill="#F7A420"></path>
                <path d="M28.9543269,25.4084135 C28.9543269,25.966875 28.4974038,26.4237981 27.9389423,26.4237981 L1.53894231,26.4237981 C0.980480769,26.4237981 0.523557692,25.966875 0.523557692,25.4084135 L3.06201923,5.10072115 C3.06201923,4.54225962 3.51894231,4.08533654 4.07740385,4.08533654 L30.9850962,4.08533654 C31.5435577,4.08533654 32.0004808,4.54225962 32.0004808,5.10072115 L28.9543269,25.4084135 Z" id="路径" fill="#F4A019"></path>
                <path d="M27.9389423,26.9314904 L1.53894231,26.9314904 C0.675865385,26.9314904 0.0158653846,26.2714904 0.0158653846,25.4084135 L0.0158653846,25.3576442 L2.55432692,5.10072115 C2.55432692,4.28841346 3.26509615,3.62841346 4.07740385,3.62841346 L30.9850962,3.62841346 C31.8481731,3.62841346 32.5081731,4.28841346 32.5081731,5.15149038 L32.5081731,5.20225962 L29.4620192,25.4591827 C29.41125,26.2714904 28.75125,26.9314904 27.9389423,26.9314904 Z M1.03125,25.4591827 C1.03125,25.7130288 1.28509615,25.9161058 1.53894231,25.9161058 L27.9389423,25.9161058 C28.2435577,25.9161058 28.4466346,25.7130288 28.4466346,25.4084135 L28.4466346,25.3576442 L31.4927885,5.10072115 C31.4927885,4.846875 31.2389423,4.64379808 30.9850962,4.64379808 L4.07740385,4.64379808 C3.77278846,4.64379808 3.56971154,4.846875 3.56971154,5.15149038 L3.56971154,5.20225962 L1.03125,25.4591827 L1.03125,25.4591827 Z" id="形状" fill="#FFDCA4"></path>
            </g>
        </g>
    </g>
</svg>