<?xml version="1.0" encoding="UTF-8"?>
<svg width="18px" height="19px" viewBox="0 0 18 19" version="1.1" xmlns="http://www.w3.org/2000/svg" xmlns:xlink="http://www.w3.org/1999/xlink">
    <!-- Generator: Sketch 57 (83077) - https://sketch.com -->
    <title>下载备份 7</title>
    <desc>Created with Sketch.</desc>
    <g id="转换" stroke="none" stroke-width="1" fill="none" fill-rule="evenodd">
        <g id="转换-我的转换-已选择" transform="translate(-1735.000000, -641.000000)" fill="#C3C3C3" fill-rule="nonzero">
            <g id="下载备份-7" transform="translate(1735.000000, 641.000000)">
                <path d="M17.9600856,11.7915003 L17.9600856,17.3479063 C17.9600856,17.911366 17.5035067,18.368219 16.9400469,18.368219 L1.43131421,18.368219 C0.867854449,18.368219 0.410727376,17.911366 0.410727376,17.3479063 L0.410727376,11.7915003 C0.410727376,11.2280405 0.867580362,10.7711875 1.43104012,10.7711875 C1.99449989,10.7711875 2.45135287,11.2280405 2.45135287,11.7915003 L2.45135287,16.3276001 L15.9194513,16.3276001 L15.9194513,11.7915003 C15.9194513,11.2280405 16.3763043,10.7711875 16.9397641,10.7711875 C17.5032238,10.7711875 17.9600856,11.2280405 17.9600856,11.7915003 L17.9600856,11.7915003 Z M8.45671378,13.0711609 C8.64862199,13.26715 8.91135653,13.3775663 9.18566084,13.3775663 C9.45998708,13.3775663 9.7226372,13.2671502 9.91462982,13.0711609 L13.9851322,8.91529681 C14.3794034,8.51273721 14.3727354,7.866775 13.9700707,7.47242048 C13.5674278,7.07823261 12.9213384,7.08481728 12.5270672,7.48746096 L10.2057238,9.85732882 L10.2057238,1.02290527 C10.2057238,0.459445505 9.74887077,0.0025925195 9.185411,0.0025925195 C8.62195124,0.0025925195 8.16509825,0.459445505 8.16509825,1.02290527 L8.16509825,9.85717533 L5.84443454,7.48743904 C5.45016335,7.08487944 4.80447522,7.0783167 4.40164154,7.47239856 C3.99908195,7.86666975 3.99235037,8.51263196 4.38662209,8.91527488 L8.45672979,13.071139 L8.45671378,13.0711609 Z" id="形状"></path>
            </g>
        </g>
    </g>
</svg>