<?xml version="1.0" encoding="UTF-8"?>
<svg width="7px" height="5px" viewBox="0 0 7 5" version="1.1" xmlns="http://www.w3.org/2000/svg" xmlns:xlink="http://www.w3.org/1999/xlink">
    <!-- Generator: Sketch 57 (83077) - https://sketch.com -->
    <title>对勾 (11)备份</title>
    <desc>Created with Sketch.</desc>
    <g id="转换" stroke="none" stroke-width="1" fill="none" fill-rule="evenodd">
        <g id="分享加盟-审核成功-微信钱包" transform="translate(-941.000000, -475.000000)" fill="#FFFFFF" fill-rule="nonzero">
            <g id="编组-63" transform="translate(654.000000, 334.000000)">
                <g id="对勾-(11)备份" transform="translate(287.000000, 141.000000)">
                    <path d="M1.9359375,4.27855114 C1.80866477,4.12741477 1.82855114,3.90170455 1.9796875,3.77443182 L6.36661932,0.0934659091 C6.51775568,-0.0338068182 6.74346591,-0.0139204545 6.87073864,0.137215909 C6.99801136,0.288352273 6.978125,0.5140625 6.82698864,0.641335227 L2.44005682,4.32230114 C2.28892045,4.44957386 2.06321023,4.4296875 1.9359375,4.27855114 L1.9359375,4.27855114 Z" id="路径"></path>
                    <path d="M2.43309659,4.32230114 C2.28196023,4.44957386 2.05625,4.4296875 1.92897727,4.27855114 L0.0884943182,2.08409091 C-0.0387784091,1.93295455 -0.0188920455,1.70724432 0.132244318,1.57997159 C0.283380682,1.45269886 0.509090909,1.47258523 0.636363636,1.62372159 L2.47784091,3.81818182 C2.60411932,3.96931818 2.58522727,4.19502841 2.43309659,4.32230114 Z" id="路径"></path>
                </g>
            </g>
        </g>
    </g>
</svg>